<?xml version="1.0" encoding="utf-8"?>
<!-- Generator: Adobe Illustrator 16.0.0, SVG Export Plug-In . SVG Version: 6.00 Build 0)  -->
<!DOCTYPE svg PUBLIC "-//W3C//DTD SVG 1.1//EN" "http://www.w3.org/Graphics/SVG/1.1/DTD/svg11.dtd">
<svg version="1.1" id="Слой_1" xmlns="http://www.w3.org/2000/svg" xmlns:xlink="http://www.w3.org/1999/xlink" x="0px" y="0px"
	 width="512px" height="512px" viewBox="0 0 512 512" enable-background="new 0 0 512 512" xml:space="preserve">
<circle fill="#FFFFFF" cx="256" cy="255.75" r="244.25"/>
<linearGradient id="SVGID_1_" gradientUnits="userSpaceOnUse" x1="364.4905" y1="913.9414" x2="678.4999" y2="539.7195" gradientTransform="matrix(1 0 0 1 -265.4946 -471.0801)">
	<stop  offset="0" style="stop-color:#001D32"/>
	<stop  offset="1" style="stop-color:#40BFE8"/>
</linearGradient>
<path fill="url(#SVGID_1_)" d="M256,11.5c-134.896,0-244.25,109.354-244.25,244.25C11.75,390.646,121.104,500,256,500
	c134.896,0,244.25-109.354,244.25-244.25C500.25,120.854,390.896,11.5,256,11.5z M256,470.002
	c-118.328,0-214.252-95.924-214.252-214.252S137.672,41.498,256,41.498c118.327,0,214.252,95.924,214.252,214.252
	S374.327,470.002,256,470.002z"/>
<path fill="#FFFFFF" d="M302.692,424.805h-92.192c-13.016,0-23.605-10.589-23.605-23.605c0-4.812,1.447-9.292,3.929-13.027h-67.937
	c-20.906,0-37.915-17.687-37.915-39.426V150.47c0-21.741,17.009-39.429,37.915-39.429h171.193
	c7.931-14.695,23.396-24.345,40.968-24.345h98.43c25.686,0,46.582,20.896,46.582,46.581v44.741
	c0,18.433-10.962,34.663-26.845,42.166v74.448l-24.995-24.994v79.109c0,21.739-17.009,39.426-37.915,39.426h-67.936
	c2.481,3.735,3.929,8.216,3.929,13.027C326.297,414.216,315.707,424.805,302.692,424.805z M132.182,340.961h248.826V326.15H187.55
	v-47.211h65.124v-5.067c-15.883-7.503-26.844-23.732-26.844-42.166v-44.741c0-10.823,3.71-20.796,9.926-28.714H132.182v120.688
	h46.186v47.211h-46.186V340.961z M322.052,278.939h58.956v-1.764c-3.286,0.729-6.691,1.111-10.168,1.111h-48.136L322.052,278.939z
	 M274.251,229.865h26.845v1.554l1.554-1.554h66.35v-41.059h-94.748V229.865z M416.16,176.177h15.476v-41.059h-15.628v40.439
	C416.06,175.763,416.111,175.969,416.16,176.177z M336.888,140.384h33.952c14.584,0,27.623,6.736,36.171,17.261l7.3-22.527h-77.423
	V140.384z"/>
<linearGradient id="SVGID_2_" gradientUnits="userSpaceOnUse" x1="125.1995" y1="381.0039" x2="423.7557" y2="82.4476">
	<stop  offset="0" style="stop-color:#001D32"/>
	<stop  offset="1" style="stop-color:#40BFE8"/>
</linearGradient>
<path fill="url(#SVGID_2_)" d="M433.477,104.195h-98.43c-14.422,0-26.42,10.556-28.689,24.345H122.886
	c-11.257,0-20.415,9.838-20.415,21.929v198.276c0,12.09,9.158,21.926,20.415,21.926h111.5l-8.14,24.422h-15.747
	c-3.372,0-6.105,2.734-6.105,6.105c0,3.37,2.734,6.105,6.105,6.105h92.192c3.37,0,6.105-2.735,6.105-6.105
	c0-3.371-2.735-6.105-6.105-6.105h-15.748l-8.141-24.422h111.501c11.257,0,20.415-9.836,20.415-21.926V227.388l24.995,24.995v-45.37
	c14.995-1.147,26.845-13.713,26.845-28.996v-44.741C462.559,117.242,449.511,104.195,433.477,104.195z M272.41,247.365
	c-8.634,0-15.659-7.026-15.659-15.659v-44.741c0-8.634,7.025-15.659,15.659-15.659h98.43c8.634,0,15.659,7.025,15.659,15.659v44.741
	c0,8.633-7.025,15.659-15.659,15.659h-60.941l-26.303,26.303v-26.303H272.41z M239.117,395.094l8.141-24.422h18.674l8.141,24.422
	H239.117z M398.508,348.743c0,5.358-3.68,9.718-8.204,9.718H122.886c-4.525,0-8.204-4.359-8.204-9.718V308.65h46.186v-12.211
	h-46.186V150.47c0-5.358,3.679-9.718,8.204-9.718h183.08v17.132H272.41c-16.035,0-29.082,13.047-29.082,29.082v44.741
	c0,15.283,11.849,27.85,26.844,28.996v35.737H205.05v12.211h193.458V348.743z M279.805,296.439l35.65-35.652h55.385
	c12.915,0,23.886-8.466,27.668-20.138v55.79H279.805z M449.136,178.017c0,8.633-7.026,15.66-15.659,15.66h-11.186v26.302
	l-22.37-22.37v-10.644c0-16.035-13.046-29.082-29.081-29.082h-51.452v-24.607c0-8.634,7.025-15.659,15.659-15.659h98.43
	c8.633,0,15.659,7.025,15.659,15.659V178.017z"/>
<linearGradient id="SVGID_3_" gradientUnits="userSpaceOnUse" x1="129.4587" y1="287.5205" x2="248.4263" y2="168.553">
	<stop  offset="0" style="stop-color:#08324A"/>
	<stop  offset="1" style="stop-color:#21708F"/>
</linearGradient>
<path fill="url(#SVGID_3_)" d="M233.186,154.258h-15.219c-1.347,0-2.189,0.662-2.384,1.621
	c-0.192,0.963-22.822,69.961-24.466,75.708c-1.167,4.075-4.969,18.438-5.881,21.888l-7.871-21.487
	c-1.913-5.913-20.241-57.119-20.778-59.164c-0.296-1.125-0.813-2.523-2.784-2.523h-14.857c-1.453,0-2.275,1.594-1.806,2.583
	c0.374,0.791,27.211,72.188,38.052,99.463v59.971c0,1.093,0.438,1.749,1.529,1.749h14.072c0.872,0,1.527-0.656,1.527-1.749v-56.849
	v-2.648c9.038-25.243,42.052-115.034,42.411-116.04C235.167,155.552,235.04,154.258,233.186,154.258z"/>
<path fill="#135370" d="M256.595,350.419c9.473,0,17.181-7.705,17.181-17.181c0-9.474-7.708-17.178-17.181-17.178
	c-9.474,0-17.181,7.704-17.181,17.178C239.414,342.714,247.121,350.419,256.595,350.419z M256.595,328.271
	c2.741,0,4.971,2.229,4.971,4.968c0,2.74-2.229,4.97-4.971,4.97s-4.97-2.229-4.97-4.97
	C251.625,330.5,253.854,328.271,256.595,328.271z"/>
</svg>
